<svg id="Layer_1" xmlns="http://www.w3.org/2000/svg" viewBox="0 0 587.4 185.9"><style>.st0{fill:#ec407a}</style><path class="st0" d="M53.4 0h17v92h-17v-7.8c-5 6.4-12.1 9.6-21.3 9.6-8.9 0-16.4-3.4-22.7-10.1C3.1 77.1 0 68.9 0 59.2s3.1-17.9 9.4-24.7c6.3-6.7 13.8-10.1 22.7-10.1 9.2 0 16.3 3.2 21.3 9.6V0zM22.2 72.5c3.5 3.5 7.8 5.2 13.1 5.2s9.6-1.7 13-5.2c3.4-3.5 5.1-7.9 5.1-13.3s-1.7-9.9-5.1-13.3c-3.4-3.5-7.8-5.2-13-5.2s-9.6 1.7-13.1 5.2S17 53.8 17 59.2s1.7 9.9 5.2 13.3zm71.4-6.4c2.3 8.2 8.5 12.4 18.5 12.4 6.5 0 11.4-2.2 14.7-6.6l13.7 7.9c-6.5 9.4-16 14.1-28.7 14.1-10.9 0-19.6-3.3-26.2-9.9-6.6-6.6-9.9-14.9-9.9-24.9 0-9.9 3.2-18.2 9.7-24.8 6.5-6.6 14.8-9.9 25-9.9 9.6 0 17.6 3.3 23.9 10 6.3 6.7 9.4 14.9 9.4 24.7 0 2.2-.2 4.5-.7 7H93.6zM93.4 53h33.5c-1-4.5-3-7.8-6-10s-6.5-3.3-10.3-3.3c-4.6 0-8.3 1.2-11.3 3.5s-5 5.6-5.9 9.8zm72.9-15.4c1.6-4.2 4.2-7.4 7.8-9.5 3.6-2.1 7.7-3.2 12.2-3.2v18.9c-5.2-.6-9.8.4-13.9 3.2-4.1 2.7-6.1 7.2-6.1 13.5V92h-17V26.3h17v11.3zm98.3-13.1c7.5 0 13.6 2.5 18.1 7.4 4.5 4.9 6.8 11.5 6.8 19.7V92h-17V52.7c0-3.9-1-7-2.9-9.2-1.9-2.2-4.6-3.3-8.2-3.3-3.9 0-6.9 1.3-9 3.8-2.1 2.5-3.2 6.2-3.2 11v37h-17V52.7c0-3.9-1-7-2.9-9.2-1.9-2.2-4.6-3.3-8.2-3.3-3.8 0-6.8 1.3-9 3.8s-3.4 6.2-3.4 11v37h-17V26.3h17v7c3.9-5.9 10-8.8 18.3-8.8 8.1 0 14 3.2 17.9 9.5 4.4-6.4 11-9.5 19.7-9.5zm89.8 59.3c-6.8 6.7-15 10.1-24.7 10.1s-17.9-3.4-24.7-10.1c-6.7-6.7-10.1-14.9-10.1-24.7s3.4-17.9 10.1-24.7c6.7-6.7 14.9-10.1 24.7-10.1 9.7 0 18 3.4 24.7 10.1 6.7 6.7 10.1 14.9 10.1 24.7s-3.4 18-10.1 24.7zM317 72.2c3.4 3.4 7.6 5.1 12.7 5.1s9.3-1.7 12.8-5.1c3.4-3.4 5.1-7.8 5.1-13s-1.7-9.6-5.1-13c-3.4-3.4-7.7-5.1-12.8-5.1-5.1 0-9.3 1.7-12.7 5.1-3.4 3.4-5.1 7.8-5.1 13s1.7 9.6 5.1 13z"/><path class="st0" d="M114 184.1H94.3l-23.9-29.9v29.9h-17v-92h17v55.3l22.6-29h20.2l-26.4 32.5 27.2 33.2z"/><path class="st0" d="M163.3 175.9c-6.8 6.7-15 10.1-24.7 10.1s-17.9-3.4-24.7-10.1c-6.7-6.7-10.1-14.9-10.1-24.7 0-9.7 3.4-17.9 10.1-24.7 6.7-6.7 14.9-10.1 24.7-10.1 9.7 0 18 3.4 24.7 10.1 6.7 6.7 10.1 14.9 10.1 24.7 0 9.7-3.3 18-10.1 24.7zm-37.4-11.7c3.4 3.4 7.6 5.1 12.7 5.1s9.3-1.7 12.8-5.1c3.4-3.4 5.1-7.8 5.1-13 0-5.3-1.7-9.6-5.1-13s-7.7-5.1-12.8-5.1c-5.1 0-9.3 1.7-12.7 5.1-3.4 3.4-5.1 7.8-5.1 13 0 5.3 1.7 9.6 5.1 13zm69.8 4h29.2v15.9h-51.8v-11.3l27.7-38.5h-26.4v-15.9h49.3v11.3l-28 38.5zm106.2-51.7c7.5 0 13.6 2.5 18.1 7.4 4.5 4.9 6.8 11.5 6.8 19.7v40.5h-17v-39.3c0-3.9-1-7-2.9-9.2-1.9-2.2-4.6-3.3-8.2-3.3-3.9 0-6.9 1.3-9 3.8-2.1 2.5-3.2 6.2-3.2 11V184h-17v-39.3c0-3.9-1-7-2.9-9.2-1.9-2.2-4.6-3.3-8.2-3.3-3.8 0-6.8 1.3-9 3.8s-3.4 6.2-3.4 11v36.9h-17v-65.7h17v7c3.9-5.9 10-8.8 18.3-8.8 8.1 0 14 3.2 17.9 9.5 4.5-6.2 11-9.4 19.7-9.4zm48.1 41.7c2.3 8.2 8.5 12.4 18.5 12.4 6.5 0 11.4-2.2 14.7-6.6l13.7 7.9c-6.5 9.4-16 14.1-28.7 14.1-10.9 0-19.6-3.3-26.2-9.9-6.6-6.6-9.9-14.9-9.9-24.9 0-9.9 3.2-18.2 9.7-24.8 6.5-6.6 14.8-9.9 25-9.9 9.6 0 17.6 3.3 23.9 10 6.3 6.7 9.4 14.9 9.4 24.7 0 2.2-.2 4.5-.7 7H350zm-.2-13.2h33.5c-1-4.5-3-7.8-6-10s-6.5-3.3-10.3-3.3c-4.6 0-8.3 1.2-11.3 3.5-3 2.4-5 5.6-5.9 9.8zm56 17c0 9 2.4 15.3 7.2 18.8 4.8 3.5 13 4.6 24.7 3.3v-15.4c-3.2.2-6 .2-8.2.1-2.2-.1-3.9-.7-5-1.8s-1.7-2.7-1.7-5v-27.4h14.9v-16.3h-14.9V99.9l-17 5.1v57zm45.9-51.5c-2.8 0-5.2-1-7.3-3.1-2.1-2.1-3.1-4.5-3.1-7.3s1-5.3 3.1-7.4c2.1-2.1 4.5-3.2 7.3-3.2 2.9 0 5.4 1.1 7.4 3.2 2.1 2.1 3.1 4.6 3.1 7.4 0 2.8-1 5.2-3.1 7.3-2.1 2-4.5 3.1-7.4 3.1zm-8.4 73.6v-65.7h17v65.7h-17zm83.2 0h-19.7l-23.9-29.9v29.9h-17V92h17v55.3l22.6-29h20.3l-26.4 32.5 27.1 33.3z"/><path class="st0" d="M570.4 118.3h17V184h-17v-7.8c-5.1 6.4-12.2 9.6-21.4 9.6-8.8 0-16.3-3.4-22.6-10.1-6.3-6.7-9.4-14.9-9.4-24.7 0-9.7 3.1-17.9 9.4-24.7 6.3-6.7 13.8-10.1 22.6-10.1 9.2 0 16.3 3.2 21.4 9.6v-7.5zm-31.3 46.3c3.4 3.5 7.8 5.2 13 5.2 5.3 0 9.6-1.7 13.1-5.2s5.2-7.9 5.2-13.3-1.7-9.9-5.2-13.3c-3.5-3.5-7.8-5.2-13.1-5.2s-9.6 1.7-13 5.2c-3.4 3.5-5.1 7.9-5.1 13.3s1.7 9.8 5.1 13.3z"/></svg>