<svg id="Layer_1" xmlns="http://www.w3.org/2000/svg" viewBox="0 0 349 240"><style>.st0{fill:#ec407a}.st1{fill:#fff}</style><path class="st0" d="M0 0h349v240H0z"/><path class="st1" d="M136.5 0h43.4v235.3h-43.4v-19.8c-12.8 16.3-31 24.5-54.5 24.5-22.6 0-42-8.6-58-25.7s-24-38.1-24-63 8-45.9 24-63 35.3-25.7 58-25.7c23.5 0 41.7 8.2 54.4 24.5V0zM56.6 185.4c8.8 8.9 20 13.3 33.4 13.3s24.5-4.4 33.3-13.3c8.7-8.8 13.1-20.2 13.1-34.1 0-13.9-4.4-25.3-13.1-34.1s-19.8-13.3-33.3-13.3-24.6 4.4-33.4 13.3c-8.9 8.9-13.3 20.2-13.3 34.1.1 13.8 4.5 25.2 13.3 34.1zM349 235.3h-50.4l-61.2-76.4v76.4H194V0h43.4v141.4l57.8-74.2H347l-67.5 83 69.5 85.1z"/></svg>