<?xml version="1.0" encoding="utf-8"?>
<!-- Generator: Adobe Illustrator 21.0.0, SVG Export Plug-In . SVG Version: 6.00 Build 0)  -->
<svg version="1.1" id="Layer_1" xmlns="http://www.w3.org/2000/svg" xmlns:xlink="http://www.w3.org/1999/xlink" x="0px" y="0px"
	 viewBox="0 0 349 240" style="enable-background:new 0 0 349 240;" xml:space="preserve">
<style type="text/css">
	.st0{fill:#EC407A;}
	.st1{fill:#FFFFFF;}
</style>
<rect class="st0" width="349" height="240"/>
<path class="st1" d="M136.5,0h43.4l0,235.3h-43.4l0-19.8C123.7,231.8,105.5,240,82,240c-22.6,0-42-8.6-58-25.7
	c-16-17.1-24-38.1-24-63s8-45.9,24-63c16-17.1,35.3-25.7,58-25.7c23.5,0,41.7,8.2,54.4,24.5V0z M56.6,185.4
	c8.8,8.9,20,13.3,33.4,13.3s24.5-4.4,33.3-13.3c8.7-8.8,13.1-20.2,13.1-34.1c0-13.9-4.4-25.3-13.1-34.1
	c-8.7-8.8-19.8-13.3-33.3-13.3s-24.6,4.4-33.4,13.3c-8.9,8.9-13.3,20.2-13.3,34.1C43.4,165.1,47.8,176.5,56.6,185.4z"/>
<path class="st1" d="M349,235.3h-50.4l-61.2-76.4v76.4H194L194,0h43.4l0,141.4l57.8-74.2h51.8l-67.5,83L349,235.3z"/>
</svg>
