<?xml version="1.0" encoding="utf-8"?>
<!-- Generator: Adobe Illustrator 21.0.0, SVG Export Plug-In . SVG Version: 6.00 Build 0)  -->
<svg version="1.1" id="Layer_1" xmlns="http://www.w3.org/2000/svg" xmlns:xlink="http://www.w3.org/1999/xlink" x="0px" y="0px"
	 viewBox="0 0 904 96.4" style="enable-background:new 0 0 904 96.4;" xml:space="preserve">
<path d="M53.4,2.5h17v92h-17v-7.8c-5,6.4-12.1,9.6-21.3,9.6c-8.9,0-16.4-3.4-22.7-10.1C3.1,79.6,0,71.4,0,61.7S3.1,43.7,9.4,37
	C15.7,30.3,23.2,27,32.1,27c9.2,0,16.3,3.2,21.3,9.6V2.5z M22.2,75c3.5,3.5,7.8,5.2,13.1,5.2s9.6-1.7,13-5.2
	c3.4-3.5,5.1-7.9,5.1-13.3c0-5.4-1.7-9.9-5.1-13.3c-3.4-3.5-7.8-5.2-13-5.2s-9.6,1.7-13.1,5.2c-3.5,3.5-5.2,7.9-5.2,13.3
	C17,67.1,18.7,71.6,22.2,75z"/>
<path d="M93.6,68.6c2.3,8.2,8.5,12.4,18.5,12.4c6.5,0,11.4-2.2,14.7-6.6l13.7,7.9c-6.5,9.4-16,14.1-28.7,14.1
	c-10.9,0-19.6-3.3-26.2-9.9c-6.6-6.6-9.9-14.9-9.9-24.9c0-9.9,3.2-18.2,9.7-24.8c6.5-6.6,14.8-9.9,25-9.9c9.6,0,17.6,3.3,23.9,10
	c6.3,6.7,9.4,14.9,9.4,24.7c0,2.2-0.2,4.5-0.7,7H93.6z M93.4,55.5h33.5c-1-4.5-3-7.8-6-10c-3-2.2-6.5-3.3-10.3-3.3
	c-4.6,0-8.3,1.2-11.3,3.5C96.3,48,94.3,51.3,93.4,55.5z"/>
<path d="M166.3,40.1c1.6-4.2,4.2-7.4,7.8-9.5c3.6-2.1,7.7-3.2,12.2-3.2v18.9c-5.2-0.6-9.8,0.4-13.9,3.2c-4.1,2.7-6.1,7.2-6.1,13.5
	v31.4h-17V28.8h17V40.1z"/>
<path d="M264.6,27c7.5,0,13.6,2.5,18.1,7.4c4.5,4.9,6.8,11.5,6.8,19.7v40.5h-17V55.2c0-3.9-1-7-2.9-9.2c-1.9-2.2-4.6-3.3-8.2-3.3
	c-3.9,0-6.9,1.3-9,3.8c-2.1,2.5-3.2,6.2-3.2,11v36.9h-17V55.2c0-3.9-1-7-2.9-9.2c-1.9-2.2-4.6-3.3-8.2-3.3c-3.8,0-6.8,1.3-9,3.8
	c-2.2,2.5-3.4,6.2-3.4,11v36.9h-17V28.8h17v7c3.9-5.9,10-8.8,18.3-8.8c8.1,0,14,3.2,17.9,9.5C249.3,30.1,255.9,27,264.6,27z"/>
<path d="M354.4,86.3c-6.8,6.7-15,10.1-24.7,10.1c-9.7,0-17.9-3.4-24.7-10.1c-6.7-6.7-10.1-14.9-10.1-24.7S298.3,43.7,305,37
	c6.7-6.7,14.9-10.1,24.7-10.1c9.7,0,18,3.4,24.7,10.1c6.7,6.7,10.1,14.9,10.1,24.7S361.1,79.6,354.4,86.3z M317,74.7
	c3.4,3.4,7.6,5.1,12.7,5.1c5.1,0,9.3-1.7,12.8-5.1s5.1-7.8,5.1-13s-1.7-9.6-5.1-13c-3.4-3.4-7.7-5.1-12.8-5.1
	c-5.1,0-9.3,1.7-12.7,5.1c-3.4,3.4-5.1,7.8-5.1,13S313.6,71.3,317,74.7z"/>
<path d="M430.6,94.5h-19.7L387,64.7v29.9h-17v-92h17v55.3l22.6-29h20.2l-26.4,32.5L430.6,94.5z"/>
<path d="M479.9,86.3c-6.8,6.7-15,10.1-24.7,10.1c-9.7,0-17.9-3.4-24.7-10.1c-6.7-6.7-10.1-14.9-10.1-24.7s3.4-17.9,10.1-24.7
	c6.7-6.7,14.9-10.1,24.7-10.1c9.7,0,18,3.4,24.7,10.1c6.7,6.7,10.1,14.9,10.1,24.7S486.7,79.6,479.9,86.3z M442.5,74.7
	c3.4,3.4,7.6,5.1,12.7,5.1c5.1,0,9.3-1.7,12.8-5.1s5.1-7.8,5.1-13s-1.7-9.6-5.1-13c-3.4-3.4-7.7-5.1-12.8-5.1
	c-5.1,0-9.3,1.7-12.7,5.1c-3.4,3.4-5.1,7.8-5.1,13S439.2,71.3,442.5,74.7z"/>
<path d="M512.3,78.6h29.2v15.9h-51.8V83.3l27.7-38.5H491V28.8h49.3v11.3L512.3,78.6z"/>
<path d="M618.5,27c7.5,0,13.6,2.5,18.1,7.4c4.5,4.9,6.8,11.5,6.8,19.7v40.5h-17V55.2c0-3.9-1-7-2.9-9.2c-1.9-2.2-4.6-3.3-8.2-3.3
	c-3.9,0-6.9,1.3-9,3.8c-2.1,2.5-3.2,6.2-3.2,11v36.9h-17V55.2c0-3.9-1-7-2.9-9.2c-1.9-2.2-4.6-3.3-8.2-3.3c-3.8,0-6.8,1.3-9,3.8
	c-2.2,2.5-3.4,6.2-3.4,11v36.9h-17V28.8h17v7c3.9-5.9,10-8.8,18.3-8.8c8.1,0,14,3.2,17.9,9.5C603.3,30.1,609.9,27,618.5,27z"/>
<path d="M666.7,68.6c2.3,8.2,8.5,12.4,18.5,12.4c6.5,0,11.4-2.2,14.7-6.6l13.7,7.9c-6.5,9.4-16,14.1-28.7,14.1
	c-10.9,0-19.6-3.3-26.2-9.9c-6.6-6.6-9.9-14.9-9.9-24.9c0-9.9,3.2-18.2,9.7-24.8c6.5-6.6,14.8-9.9,25-9.9c9.6,0,17.6,3.3,23.9,10
	c6.3,6.7,9.4,14.9,9.4,24.7c0,2.2-0.2,4.5-0.7,7H666.7z M666.4,55.5h33.5c-1-4.5-3-7.8-6-10c-3-2.2-6.5-3.3-10.3-3.3
	c-4.6,0-8.3,1.2-11.3,3.5C669.3,48,667.4,51.3,666.4,55.5z"/>
<path d="M722.4,72.5c0,9,2.4,15.3,7.2,18.8c4.8,3.5,13,4.6,24.7,3.3V79.2c-3.2,0.2-6,0.2-8.2,0.1c-2.2-0.1-3.9-0.7-5-1.8
	c-1.1-1.1-1.7-2.7-1.7-5V45.1h14.9V28.8h-14.9V10.4l-17,5.1"/>
<path d="M768.3,20.9c-2.8,0-5.2-1-7.3-3.1c-2.1-2.1-3.1-4.5-3.1-7.3c0-2.8,1-5.3,3.1-7.4c2.1-2.1,4.5-3.2,7.3-3.2
	c2.9,0,5.4,1.1,7.4,3.2c2.1,2.1,3.1,4.6,3.1,7.4c0,2.8-1,5.2-3.1,7.3C773.7,19.9,771.2,20.9,768.3,20.9z M759.9,94.5V28.8h17v65.7
	H759.9z"/>
<path d="M843.1,94.5h-19.7l-23.9-29.9v29.9h-17v-92h17v55.3l22.6-29h20.3l-26.4,32.5L843.1,94.5z"/>
<path d="M887,28.8h17v65.7h-17v-7.8c-5.1,6.4-12.2,9.6-21.4,9.6c-8.8,0-16.3-3.4-22.5-10.1c-6.3-6.7-9.4-14.9-9.4-24.7
	s3.1-17.9,9.4-24.7c6.3-6.7,13.8-10.1,22.5-10.1c9.2,0,16.3,3.2,21.4,9.6V28.8z M855.7,75c3.4,3.5,7.8,5.2,13,5.2
	c5.3,0,9.6-1.7,13.1-5.2c3.5-3.5,5.2-7.9,5.2-13.3c0-5.4-1.7-9.9-5.2-13.3c-3.5-3.5-7.8-5.2-13.1-5.2c-5.3,0-9.6,1.7-13,5.2
	c-3.4,3.5-5.1,7.9-5.1,13.3C850.6,67.1,852.3,71.6,855.7,75z"/>
</svg>
