<?xml version="1.0" encoding="utf-8"?>
<!-- Generator: Adobe Illustrator 21.0.0, SVG Export Plug-In . SVG Version: 6.00 Build 0)  -->
<svg version="1.1" id="Layer_1" xmlns="http://www.w3.org/2000/svg" xmlns:xlink="http://www.w3.org/1999/xlink" x="0px" y="0px"
	 viewBox="0 0 587.4 185.9" style="enable-background:new 0 0 587.4 185.9;" xml:space="preserve">
<style type="text/css">
	.st0{fill:#EC407A;}
</style>
<path class="st0" d="M53.4,0h17l0,92h-17l0-7.8c-5,6.4-12.1,9.6-21.3,9.6c-8.9,0-16.4-3.4-22.7-10.1C3.1,77.1,0,68.9,0,59.2
	s3.1-17.9,9.4-24.7c6.3-6.7,13.8-10.1,22.7-10.1c9.2,0,16.3,3.2,21.3,9.6V0z M22.2,72.5c3.5,3.5,7.8,5.2,13.1,5.2s9.6-1.7,13-5.2
	c3.4-3.5,5.1-7.9,5.1-13.3c0-5.4-1.7-9.9-5.1-13.3c-3.4-3.5-7.8-5.2-13-5.2s-9.6,1.7-13.1,5.2c-3.5,3.5-5.2,7.9-5.2,13.3
	C17,64.6,18.7,69.1,22.2,72.5z"/>
<path class="st0" d="M93.6,66.1c2.3,8.2,8.5,12.4,18.5,12.4c6.5,0,11.4-2.2,14.7-6.6l13.7,7.9c-6.5,9.4-16,14.1-28.7,14.1
	c-10.9,0-19.6-3.3-26.2-9.9c-6.6-6.6-9.9-14.9-9.9-24.9c0-9.9,3.2-18.2,9.7-24.8c6.5-6.6,14.8-9.9,25-9.9c9.6,0,17.6,3.3,23.9,10
	c6.3,6.7,9.4,14.9,9.4,24.7c0,2.2-0.2,4.5-0.7,7H93.6z M93.4,53h33.5c-1-4.5-3-7.8-6-10c-3-2.2-6.5-3.3-10.3-3.3
	c-4.6,0-8.3,1.2-11.3,3.5C96.3,45.5,94.3,48.8,93.4,53z"/>
<path class="st0" d="M166.3,37.6c1.6-4.2,4.2-7.4,7.8-9.5c3.6-2.1,7.7-3.2,12.2-3.2v18.9c-5.2-0.6-9.8,0.4-13.9,3.2
	c-4.1,2.7-6.1,7.2-6.1,13.5V92h-17V26.3h17V37.6z"/>
<path class="st0" d="M264.6,24.5c7.5,0,13.6,2.5,18.1,7.4c4.5,4.9,6.8,11.5,6.8,19.7V92h-17V52.7c0-3.9-1-7-2.9-9.2
	c-1.9-2.2-4.6-3.3-8.2-3.3c-3.9,0-6.9,1.3-9,3.8c-2.1,2.5-3.2,6.2-3.2,11V92h-17V52.7c0-3.9-1-7-2.9-9.2c-1.9-2.2-4.6-3.3-8.2-3.3
	c-3.8,0-6.8,1.3-9,3.8c-2.2,2.5-3.4,6.2-3.4,11V92h-17V26.3h17v7c3.9-5.9,10-8.8,18.3-8.8c8.1,0,14,3.2,17.9,9.5
	C249.3,27.6,255.9,24.5,264.6,24.5z"/>
<path class="st0" d="M354.4,83.8c-6.8,6.7-15,10.1-24.7,10.1c-9.7,0-17.9-3.4-24.7-10.1c-6.7-6.7-10.1-14.9-10.1-24.7
	s3.4-17.9,10.1-24.7c6.7-6.7,14.9-10.1,24.7-10.1c9.7,0,18,3.4,24.7,10.1c6.7,6.7,10.1,14.9,10.1,24.7S361.1,77.1,354.4,83.8z
	 M317,72.2c3.4,3.4,7.6,5.1,12.7,5.1c5.1,0,9.3-1.7,12.8-5.1c3.4-3.4,5.1-7.8,5.1-13s-1.7-9.6-5.1-13c-3.4-3.4-7.7-5.1-12.8-5.1
	c-5.1,0-9.3,1.7-12.7,5.1c-3.4,3.4-5.1,7.8-5.1,13S313.6,68.8,317,72.2z"/>
<path class="st0" d="M114,184.1H94.3l-23.9-29.9v29.9h-17l0-92h17l0,55.3l22.6-29h20.2l-26.4,32.5L114,184.1z"/>
<path class="st0" d="M163.3,175.9c-6.8,6.7-15,10.1-24.7,10.1c-9.7,0-17.9-3.4-24.7-10.1c-6.7-6.7-10.1-14.9-10.1-24.7
	c0-9.7,3.4-17.9,10.1-24.7c6.7-6.7,14.9-10.1,24.7-10.1c9.7,0,18,3.4,24.7,10.1c6.7,6.7,10.1,14.9,10.1,24.7
	C173.4,160.9,170.1,169.2,163.3,175.9z M125.9,164.2c3.4,3.4,7.6,5.1,12.7,5.1c5.1,0,9.3-1.7,12.8-5.1c3.4-3.4,5.1-7.8,5.1-13
	c0-5.3-1.7-9.6-5.1-13s-7.7-5.1-12.8-5.1c-5.1,0-9.3,1.7-12.7,5.1c-3.4,3.4-5.1,7.8-5.1,13C120.8,156.5,122.5,160.8,125.9,164.2z"/>
<path class="st0" d="M195.7,168.2h29.2v15.9h-51.8v-11.3l27.7-38.5h-26.4v-15.9h49.3v11.3L195.7,168.2z"/>
<path class="st0" d="M301.9,116.5c7.5,0,13.6,2.5,18.1,7.4c4.5,4.9,6.8,11.5,6.8,19.7v40.5h-17v-39.3c0-3.9-1-7-2.9-9.2
	c-1.9-2.2-4.6-3.3-8.2-3.3c-3.9,0-6.9,1.3-9,3.8c-2.1,2.5-3.2,6.2-3.2,11v36.9h-17v-39.3c0-3.9-1-7-2.9-9.2
	c-1.9-2.2-4.6-3.3-8.2-3.3c-3.8,0-6.8,1.3-9,3.8c-2.2,2.5-3.4,6.2-3.4,11v36.9h-17v-65.7h17v7c3.9-5.9,10-8.8,18.3-8.8
	c8.1,0,14,3.2,17.9,9.5C286.7,119.7,293.2,116.5,301.9,116.5z"/>
<path class="st0" d="M350,158.2c2.3,8.2,8.5,12.4,18.5,12.4c6.5,0,11.4-2.2,14.7-6.6l13.7,7.9c-6.5,9.4-16,14.1-28.7,14.1
	c-10.9,0-19.6-3.3-26.2-9.9c-6.6-6.6-9.9-14.9-9.9-24.9c0-9.9,3.2-18.2,9.7-24.8c6.5-6.6,14.8-9.9,25-9.9c9.6,0,17.6,3.3,23.9,10
	c6.3,6.7,9.4,14.9,9.4,24.7c0,2.2-0.2,4.5-0.7,7H350z M349.8,145h33.5c-1-4.5-3-7.8-6-10c-3-2.2-6.5-3.3-10.3-3.3
	c-4.6,0-8.3,1.2-11.3,3.5C352.7,137.6,350.7,140.8,349.8,145z"/>
<path class="st0" d="M405.8,162c0,9,2.4,15.3,7.2,18.8c4.8,3.5,13,4.6,24.7,3.3v-15.4c-3.2,0.2-6,0.2-8.2,0.1
	c-2.2-0.1-3.9-0.7-5-1.8c-1.1-1.1-1.7-2.7-1.7-5v-27.4h14.9v-16.3h-14.9V99.9l-17,5.1V162z"/>
<path class="st0" d="M451.7,110.5c-2.8,0-5.2-1-7.3-3.1c-2.1-2.1-3.1-4.5-3.1-7.3c0-2.8,1-5.3,3.1-7.4c2.1-2.1,4.5-3.2,7.3-3.2
	c2.9,0,5.4,1.1,7.4,3.2c2.1,2.1,3.1,4.6,3.1,7.4c0,2.8-1,5.2-3.1,7.3C457,109.4,454.6,110.5,451.7,110.5z M443.3,184.1v-65.7h17
	v65.7H443.3z"/>
<path class="st0" d="M526.5,184.1h-19.7l-23.9-29.9v29.9h-17V92h17v55.3l22.6-29h20.3l-26.4,32.5L526.5,184.1z"/>
<path class="st0" d="M570.4,118.3h17v65.7h-17v-7.8c-5.1,6.4-12.2,9.6-21.4,9.6c-8.8,0-16.3-3.4-22.6-10.1
	c-6.3-6.7-9.4-14.9-9.4-24.7c0-9.7,3.1-17.9,9.4-24.7c6.3-6.7,13.8-10.1,22.6-10.1c9.2,0,16.3,3.2,21.4,9.6V118.3z M539.1,164.6
	c3.4,3.5,7.8,5.2,13,5.2c5.3,0,9.6-1.7,13.1-5.2c3.5-3.5,5.2-7.9,5.2-13.3c0-5.4-1.7-9.9-5.2-13.3c-3.5-3.5-7.8-5.2-13.1-5.2
	c-5.3,0-9.6,1.7-13,5.2c-3.4,3.5-5.1,7.9-5.1,13.3C534,156.7,535.7,161.1,539.1,164.6z"/>
</svg>
